<svg width="120" height="120" viewBox="0 0 120 120" fill="none" xmlns="http://www.w3.org/2000/svg">
<path d="M60 0L111.962 30V90L60 120L8.03848 90V30L60 0Z" fill="#6FB794"/>
<path fill-rule="evenodd" clip-rule="evenodd" d="M58.7769 28.5934C81.8595 30.7917 95.0496 46.1802 93.9504 92.3454H43.3884C43.3884 72.5603 65.3719 78.0562 60.9752 46.1802" fill="white"/>
<path d="M58.7769 28.5934C81.8595 30.7917 95.0496 46.1802 93.9504 92.3454H43.3884C43.3884 72.5603 65.3719 78.0562 60.9752 46.1802" stroke="black" stroke-width="4" stroke-linecap="round" stroke-linejoin="round"/>
<path fill-rule="evenodd" clip-rule="evenodd" d="M63.1735 46.1802C64.0089 52.5774 50.9727 62.382 45.5867 65.9653C38.9917 70.362 39.3874 75.5061 34.595 74.7587C32.3043 72.6922 37.6947 68.0757 34.595 68.1636C32.3967 68.1636 35.0127 70.8676 32.3967 72.5603C30.1983 72.5603 23.5967 74.7587 23.6033 63.7669C23.6033 59.3703 36.7934 37.3868 36.7934 37.3868C36.7934 37.3868 40.9482 33.2099 41.1901 29.6926C39.5853 27.5074 40.0909 25.2959 40.0909 23.0975C42.2892 20.8992 46.6859 28.5934 46.6859 28.5934H51.0826C51.0826 28.5934 52.7973 24.2143 56.5785 21.9984C58.7768 21.9984 58.7768 28.5934 58.7768 28.5934" fill="white"/>
<path d="M63.1735 46.1802C64.0089 52.5774 50.9727 62.382 45.5867 65.9653C38.9917 70.362 39.3874 75.5061 34.595 74.7587C32.3043 72.6922 37.6947 68.0757 34.595 68.1636C32.3967 68.1636 35.0127 70.8676 32.3967 72.5603C30.1983 72.5603 23.5967 74.7587 23.6033 63.7669C23.6033 59.3703 36.7934 37.3868 36.7934 37.3868C36.7934 37.3868 40.9482 33.2099 41.1901 29.6926C39.5853 27.5074 40.0909 25.2959 40.0909 23.0975C42.2892 20.8992 46.6859 28.5934 46.6859 28.5934H51.0826C51.0826 28.5934 52.7973 24.2143 56.5785 21.9984C58.7768 21.9984 58.7768 28.5934 58.7768 28.5934" stroke="black" stroke-width="4" stroke-linecap="round" stroke-linejoin="round"/>
<path fill-rule="evenodd" clip-rule="evenodd" d="M31.2975 62.6678C31.2975 62.9593 31.1817 63.2389 30.9755 63.445C30.7694 63.6511 30.4898 63.767 30.1983 63.767C29.9068 63.767 29.6272 63.6511 29.4211 63.445C29.2149 63.2389 29.0991 62.9593 29.0991 62.6678C29.0991 62.3763 29.2149 62.0967 29.4211 61.8905C29.6272 61.6844 29.9068 61.5686 30.1983 61.5686C30.4898 61.5686 30.7694 61.6844 30.9755 61.8905C31.1817 62.0967 31.2975 62.3763 31.2975 62.6678Z" fill="black" stroke="black" stroke-width="4" stroke-linecap="round" stroke-linejoin="round"/>
<path fill-rule="evenodd" clip-rule="evenodd" d="M43.2411 41.2339C42.8038 41.9912 42.2842 42.6597 41.7964 43.0922C41.3087 43.5246 40.8929 43.6857 40.6404 43.5399C40.388 43.3942 40.3196 42.9535 40.4503 42.3149C40.581 41.6763 40.9 40.8921 41.3373 40.1347C41.7746 39.3773 42.2943 38.7089 42.782 38.2764C43.2697 37.844 43.6855 37.6829 43.938 37.8286C44.1904 37.9744 44.2588 38.4151 44.1281 39.0537C43.9975 39.6923 43.6784 40.4765 43.2411 41.2339Z" fill="black" stroke="black" stroke-width="4" stroke-linecap="round" stroke-linejoin="round"/>
</svg>
