<svg width="1600" height="1804" viewBox="0 0 1600 1804" fill="none" xmlns="http://www.w3.org/2000/svg">
<path d="M894.118 246L847.059 328L752.942 328L705.883 246L752.942 164L847.059 164L894.118 246Z" fill="#FFCE9E"/>
<path d="M894.118 1722L847.059 1804L752.942 1804L705.883 1722L752.942 1640L847.059 1640L894.118 1722Z" fill="#FFCE9E"/>
<path d="M894.118 738L847.059 820L752.942 820L705.883 738L752.942 656L847.059 656L894.118 738Z" fill="#FFCE9E"/>
<path d="M894.118 1230L847.059 1312L752.942 1312L705.883 1230L752.942 1148L847.059 1148L894.118 1230Z" fill="#FFCE9E"/>
<path d="M894.118 410L847.059 492L752.942 492L705.883 410L752.942 328L847.059 328L894.118 410Z" fill="#E8AB6F"/>
<path d="M894.118 902L847.059 984L752.942 984L705.883 902L752.942 820L847.059 820L894.118 902Z" fill="#E8AB6F"/>
<path d="M894.118 1394L847.059 1476L752.942 1476L705.883 1394L752.942 1312L847.059 1312L894.118 1394Z" fill="#E8AB6F"/>
<path d="M894.118 574L847.059 656L752.942 656L705.883 574L752.942 492L847.059 492L894.118 574Z" fill="#D18B47"/>
<path d="M894.118 1066L847.059 1148L752.942 1148L705.883 1066L752.942 984L847.059 984L894.118 1066Z" fill="#D18B47"/>
<path d="M894.118 1558L847.059 1640L752.942 1640L705.883 1558L752.942 1476L847.059 1476L894.118 1558Z" fill="#D18B47"/>
<path d="M894.118 82L847.059 164L752.942 164L705.883 82L752.942 -6.17302e-06L847.059 -2.05767e-06L894.118 82Z" fill="#D18B47"/>
<path d="M1035.29 1640L988.235 1722L894.117 1722L847.059 1640L894.117 1558L988.235 1558L1035.29 1640Z" fill="#E8AB6F"/>
<path d="M752.941 1476L705.883 1558L611.765 1558L564.706 1476L611.765 1394L705.883 1394L752.941 1476Z" fill="#FFCE9E"/>
<path d="M752.941 492L705.883 574L611.765 574L564.706 492L611.765 410L705.883 410L752.941 492Z" fill="#FFCE9E"/>
<path d="M752.941 984L705.883 1066L611.765 1066L564.706 984L611.765 902L705.883 902L752.941 984Z" fill="#FFCE9E"/>
<path d="M752.941 164L705.883 246L611.765 246L564.706 164L611.765 82L705.883 82L752.941 164Z" fill="#E8AB6F"/>
<path d="M752.941 1640L705.883 1722L611.765 1722L564.706 1640L611.765 1558L705.883 1558L752.941 1640Z" fill="#E8AB6F"/>
<path d="M752.941 656L705.883 738L611.765 738L564.706 656L611.765 574L705.883 574L752.941 656Z" fill="#E8AB6F"/>
<path d="M752.941 1148L705.883 1230L611.765 1230L564.706 1148L611.765 1066L705.883 1066L752.941 1148Z" fill="#E8AB6F"/>
<path d="M752.941 328L705.883 410L611.765 410L564.706 328L611.765 246L705.883 246L752.941 328Z" fill="#D18B47"/>
<path d="M752.941 820L705.883 902L611.765 902L564.706 820L611.765 738L705.883 738L752.941 820Z" fill="#D18B47"/>
<path d="M752.941 1312L705.883 1394L611.765 1394L564.706 1312L611.765 1230L705.883 1230L752.941 1312Z" fill="#D18B47"/>
<path d="M611.765 246L564.706 328L470.588 328L423.529 246L470.588 164L564.706 164L611.765 246Z" fill="#FFCE9E"/>
<path d="M611.765 738L564.706 820L470.588 820L423.529 738L470.588 656L564.706 656L611.765 738Z" fill="#FFCE9E"/>
<path d="M611.765 1230L564.706 1312L470.588 1312L423.529 1230L470.588 1148L564.706 1148L611.765 1230Z" fill="#FFCE9E"/>
<path d="M611.765 410L564.706 492L470.588 492L423.529 410L470.588 328L564.706 328L611.765 410Z" fill="#E8AB6F"/>
<path d="M611.765 902L564.706 984L470.588 984L423.529 902L470.588 820L564.706 820L611.765 902Z" fill="#E8AB6F"/>
<path d="M611.765 1394L564.706 1476L470.588 1476L423.529 1394L470.588 1312L564.706 1312L611.765 1394Z" fill="#E8AB6F"/>
<path d="M611.765 574L564.706 656L470.588 656L423.529 574L470.588 492L564.706 492L611.765 574Z" fill="#D18B47"/>
<path d="M611.765 1066L564.706 1148L470.588 1148L423.529 1066L470.588 984L564.706 984L611.765 1066Z" fill="#D18B47"/>
<path d="M611.765 1558L564.706 1640L470.588 1640L423.529 1558L470.588 1476L564.706 1476L611.765 1558Z" fill="#D18B47"/>
<path d="M470.588 492L423.53 574L329.412 574L282.353 492L329.412 410L423.53 410L470.588 492Z" fill="#FFCE9E"/>
<path d="M470.588 984L423.53 1066L329.412 1066L282.353 984L329.412 902L423.53 902L470.588 984Z" fill="#FFCE9E"/>
<path d="M470.588 1476L423.53 1558L329.412 1558L282.353 1476L329.412 1394L423.53 1394L470.588 1476Z" fill="#FFCE9E"/>
<path d="M470.588 656L423.53 738L329.412 738L282.353 656L329.412 574L423.53 574L470.588 656Z" fill="#E8AB6F"/>
<path d="M470.588 1148L423.53 1230L329.412 1230L282.353 1148L329.412 1066L423.53 1066L470.588 1148Z" fill="#E8AB6F"/>
<path d="M470.588 820L423.53 902L329.412 902L282.353 820L329.412 738L423.53 738L470.588 820Z" fill="#D18B47"/>
<path d="M470.588 1312L423.53 1394L329.412 1394L282.353 1312L329.412 1230L423.53 1230L470.588 1312Z" fill="#D18B47"/>
<path d="M470.588 328L423.53 410L329.412 410L282.353 328L329.412 246L423.53 246L470.588 328Z" fill="#D18B47"/>
<path d="M329.412 738L282.353 820L188.236 820L141.177 738L188.236 656L282.353 656L329.412 738Z" fill="#FFCE9E"/>
<path d="M329.412 1230L282.353 1312L188.236 1312L141.177 1230L188.236 1148L282.353 1148L329.412 1230Z" fill="#FFCE9E"/>
<path d="M329.412 410L282.353 492L188.236 492L141.177 410L188.236 328L282.353 328L329.412 410Z" fill="#E8AB6F"/>
<path d="M329.412 1394L282.353 1476L188.236 1476L141.177 1394L188.236 1312L282.353 1312L329.412 1394Z" fill="#E8AB6F"/>
<path d="M329.412 902L282.353 984L188.236 984L141.177 902L188.236 820L282.353 820L329.412 902Z" fill="#E8AB6F"/>
<path d="M329.412 574L282.353 656L188.236 656L141.177 574L188.236 492L282.353 492L329.412 574Z" fill="#D18B47"/>
<path d="M329.412 1066L282.353 1148L188.236 1148L141.177 1066L188.236 984L282.353 984L329.412 1066Z" fill="#D18B47"/>
<path d="M188.235 492L141.177 574L47.0589 574L6.18627e-05 492L47.0589 410L141.177 410L188.235 492Z" fill="#FFCE9E"/>
<path d="M188.235 984L141.177 1066L47.0589 1066L6.18627e-05 984L47.0589 902L141.177 902L188.235 984Z" fill="#FFCE9E"/>
<path d="M188.235 1148L141.177 1230L47.0589 1230L6.18627e-05 1148L47.0589 1066L141.177 1066L188.235 1148Z" fill="#E8AB6F"/>
<path d="M188.235 656L141.177 738L47.0589 738L6.18627e-05 656L47.0589 574L141.177 574L188.235 656Z" fill="#E8AB6F"/>
<path d="M188.235 820L141.177 902L47.0589 902L6.18627e-05 820L47.0589 738L141.177 738L188.235 820Z" fill="#D18B47"/>
<path d="M188.235 1312L141.177 1394L47.0589 1394L6.18627e-05 1312L47.0589 1230L141.177 1230L188.235 1312Z" fill="#D18B47"/>
<path d="M1600 492L1552.94 574L1458.82 574L1411.76 492L1458.82 410L1552.94 410L1600 492Z" fill="#FFCE9E"/>
<path d="M1600 984L1552.94 1066L1458.82 1066L1411.76 984L1458.82 902L1552.94 902L1600 984Z" fill="#FFCE9E"/>
<path d="M1600 1148L1552.94 1230L1458.82 1230L1411.76 1148L1458.82 1066L1552.94 1066L1600 1148Z" fill="#E8AB6F"/>
<path d="M1600 656L1552.94 738L1458.82 738L1411.76 656L1458.82 574L1552.94 574L1600 656Z" fill="#E8AB6F"/>
<path d="M1600 820L1552.94 902L1458.82 902L1411.76 820L1458.82 738L1552.94 738L1600 820Z" fill="#D18B47"/>
<path d="M1600 1312L1552.94 1394L1458.82 1394L1411.76 1312L1458.82 1230L1552.94 1230L1600 1312Z" fill="#D18B47"/>
<path d="M1458.82 738L1411.76 820L1317.65 820L1270.59 738L1317.65 656L1411.76 656L1458.82 738Z" fill="#FFCE9E"/>
<path d="M1458.82 1230L1411.76 1312L1317.65 1312L1270.59 1230L1317.65 1148L1411.76 1148L1458.82 1230Z" fill="#FFCE9E"/>
<path d="M1458.82 410L1411.76 492L1317.65 492L1270.59 410L1317.65 328L1411.76 328L1458.82 410Z" fill="#E8AB6F"/>
<path d="M1458.82 1394L1411.76 1476L1317.65 1476L1270.59 1394L1317.65 1312L1411.76 1312L1458.82 1394Z" fill="#E8AB6F"/>
<path d="M1458.82 902L1411.76 984L1317.65 984L1270.59 902L1317.65 820L1411.76 820L1458.82 902Z" fill="#E8AB6F"/>
<path d="M1458.82 574L1411.76 656L1317.65 656L1270.59 574L1317.65 492L1411.76 492L1458.82 574Z" fill="#D18B47"/>
<path d="M1458.82 1066L1411.76 1148L1317.65 1148L1270.59 1066L1317.65 984L1411.76 984L1458.82 1066Z" fill="#D18B47"/>
<path d="M1317.65 492L1270.59 574L1176.47 574L1129.41 492L1176.47 410L1270.59 410L1317.65 492Z" fill="#FFCE9E"/>
<path d="M1317.65 984L1270.59 1066L1176.47 1066L1129.41 984L1176.47 902L1270.59 902L1317.65 984Z" fill="#FFCE9E"/>
<path d="M1317.65 1476L1270.59 1558L1176.47 1558L1129.41 1476L1176.47 1394L1270.59 1394L1317.65 1476Z" fill="#FFCE9E"/>
<path d="M1317.65 656L1270.59 738L1176.47 738L1129.41 656L1176.47 574L1270.59 574L1317.65 656Z" fill="#E8AB6F"/>
<path d="M1317.65 1148L1270.59 1230L1176.47 1230L1129.41 1148L1176.47 1066L1270.59 1066L1317.65 1148Z" fill="#E8AB6F"/>
<path d="M1317.65 820L1270.59 902L1176.47 902L1129.41 820L1176.47 738L1270.59 738L1317.65 820Z" fill="#D18B47"/>
<path d="M1317.65 1312L1270.59 1394L1176.47 1394L1129.41 1312L1176.47 1230L1270.59 1230L1317.65 1312Z" fill="#D18B47"/>
<path d="M1317.65 328L1270.59 410L1176.47 410L1129.41 328L1176.47 246L1270.59 246L1317.65 328Z" fill="#D18B47"/>
<path d="M1176.47 246L1129.41 328L1035.29 328L988.235 246L1035.29 164L1129.41 164L1176.47 246Z" fill="#FFCE9E"/>
<path d="M1176.47 738L1129.41 820L1035.29 820L988.235 738L1035.29 656L1129.41 656L1176.47 738Z" fill="#FFCE9E"/>
<path d="M1176.47 1230L1129.41 1312L1035.29 1312L988.235 1230L1035.29 1148L1129.41 1148L1176.47 1230Z" fill="#FFCE9E"/>
<path d="M1176.47 410L1129.41 492L1035.29 492L988.235 410L1035.29 328L1129.41 328L1176.47 410Z" fill="#E8AB6F"/>
<path d="M1176.47 902L1129.41 984L1035.29 984L988.235 902L1035.29 820L1129.41 820L1176.47 902Z" fill="#E8AB6F"/>
<path d="M1176.47 1394L1129.41 1476L1035.29 1476L988.235 1394L1035.29 1312L1129.41 1312L1176.47 1394Z" fill="#E8AB6F"/>
<path d="M1176.47 574L1129.41 656L1035.29 656L988.235 574L1035.29 492L1129.41 492L1176.47 574Z" fill="#D18B47"/>
<path d="M1176.47 1066L1129.41 1148L1035.29 1148L988.235 1066L1035.29 984L1129.41 984L1176.47 1066Z" fill="#D18B47"/>
<path d="M1176.47 1558L1129.41 1640L1035.29 1640L988.235 1558L1035.29 1476L1129.41 1476L1176.47 1558Z" fill="#D18B47"/>
<path d="M1035.29 1476L988.235 1558L894.117 1558L847.059 1476L894.117 1394L988.235 1394L1035.29 1476Z" fill="#FFCE9E"/>
<path d="M1035.29 492L988.235 574L894.117 574L847.059 492L894.117 410L988.235 410L1035.29 492Z" fill="#FFCE9E"/>
<path d="M1035.29 984L988.235 1066L894.117 1066L847.059 984L894.117 902L988.235 902L1035.29 984Z" fill="#FFCE9E"/>
<path d="M1035.29 164L988.235 246L894.117 246L847.059 164L894.117 82L988.235 82L1035.29 164Z" fill="#E8AB6F"/>
<path d="M1035.29 656L988.235 738L894.117 738L847.059 656L894.117 574L988.235 574L1035.29 656Z" fill="#E8AB6F"/>
<path d="M1035.29 1148L988.235 1230L894.117 1230L847.059 1148L894.117 1066L988.235 1066L1035.29 1148Z" fill="#E8AB6F"/>
<path d="M1035.29 328L988.235 410L894.117 410L847.059 328L894.117 246L988.235 246L1035.29 328Z" fill="#D18B47"/>
<path d="M1035.29 820L988.235 902L894.117 902L847.059 820L894.117 738L988.235 738L1035.29 820Z" fill="#D18B47"/>
<path d="M1035.29 1312L988.235 1394L894.117 1394L847.059 1312L894.117 1230L988.235 1230L1035.29 1312Z" fill="#D18B47"/>
</svg>
